<svg width="90" height="90" viewBox="0 0 90 90" fill="none" xmlns="http://www.w3.org/2000/svg">
<path d="M37.5 22.5C36.5055 22.5 35.5516 22.8951 34.8484 23.5983C34.1451 24.3016 33.75 25.2554 33.75 26.25L33.75 69.7125L25.1625 61.0875C24.4564 60.3813 23.4987 59.9846 22.5 59.9846C21.5014 59.9846 20.5437 60.3813 19.8375 61.0875C19.1314 61.7936 18.7347 62.7513 18.7347 63.75C18.7347 64.7486 19.1314 65.7063 19.8375 66.4125L34.8375 81.4125C35.3649 81.9328 36.0345 82.2853 36.762 82.4254C37.4894 82.5656 38.2421 82.4871 38.925 82.2C39.6098 81.9186 40.1961 81.4409 40.6098 80.8269C41.0236 80.213 41.2463 79.4903 41.25 78.75L41.25 26.25C41.25 25.2554 40.8549 24.3016 40.1517 23.5983C39.4484 22.8951 38.4946 22.5 37.5 22.5ZM51.075 7.79997C50.3902 8.08129 49.804 8.55903 49.3902 9.17299C48.9765 9.78694 48.7537 10.5096 48.75 11.25L48.75 63.75C48.75 64.7445 49.1451 65.6984 49.8484 66.4016C50.5516 67.1049 51.5055 67.5 52.5 67.5C53.4946 67.5 54.4484 67.1049 55.1517 66.4016C55.8549 65.6984 56.25 64.7445 56.25 63.75L56.25 20.2875L64.8375 28.9125C65.1861 29.2639 65.6009 29.5429 66.0579 29.7333C66.5148 29.9237 67.005 30.0217 67.5 30.0217C67.9951 30.0217 68.4852 29.9237 68.9422 29.7333C69.3992 29.5429 69.8139 29.2639 70.1625 28.9125C70.514 28.5639 70.793 28.1491 70.9834 27.6921C71.1738 27.2352 71.2718 26.745 71.2718 26.25C71.2718 25.7549 71.1738 25.2648 70.9834 24.8078C70.793 24.3508 70.514 23.9361 70.1625 23.5875L55.1625 8.58747C54.6352 8.06713 53.9655 7.71464 53.2381 7.57449C52.5106 7.43434 51.7579 7.51279 51.075 7.79997Z" fill="#3B474D" stroke="#3B474D" stroke-width="0.0009"/>
</svg>
